<svg width="1920" height="3905" viewBox="0 0 1920 3905" fill="none" xmlns="http://www.w3.org/2000/svg">
<g clip-path="url(#clip0_0_53)">
<rect width="1920" height="3905" fill="#0A0A0A"/>
<circle cx="193.578" cy="221.578" r="353.746" transform="rotate(19.3413 193.578 221.578)" fill="url(#paint0_linear_0_53)" stroke="url(#paint1_linear_0_53)"/>
<circle cx="193.578" cy="221.578" r="353.746" transform="rotate(19.3413 193.578 221.578)" fill="url(#paint2_linear_0_53)" stroke="url(#paint3_linear_0_53)"/>
<circle cx="1658.5" cy="1268.5" r="361" fill="url(#paint4_linear_0_53)" fill-opacity="0.9" stroke="url(#paint5_linear_0_53)"/>
<circle cx="124.5" cy="2550.5" r="361" fill="url(#paint6_linear_0_53)" fill-opacity="0.9" stroke="url(#paint7_linear_0_53)"/>
<g filter="url(#filter0_f_0_53)">
<ellipse cx="1369.09" cy="417.003" rx="258.873" ry="731.12" transform="rotate(53.0991 1369.09 417.003)" fill="#28292E" fill-opacity="0.6"/>
</g>
<path d="M1100.3 384.828L1787.43 -9.5H1951.5V149.255L1464.91 481.458L1100.3 384.828Z" fill="url(#paint8_linear_0_53)" stroke="url(#paint9_linear_0_53)"/>
<g filter="url(#filter1_f_0_53)">
<ellipse cx="308.659" cy="664.306" rx="357.993" ry="364.783" transform="rotate(53.0991 308.659 664.306)" fill="#28292E" fill-opacity="0.7"/>
</g>
<path d="M-65 320.485C-26.8665 351.731 75.4367 415.183 152.685 454.456C219.54 488.445 288.085 509.797 90.6371 652.862C-106.811 795.927 217.52 823.271 325.822 807.5" stroke="#393939" stroke-opacity="0.8" stroke-width="2"/>
<path d="M1903.67 1041.97C1858.74 1062.27 1743.49 1097.05 1658.7 1114.96C1585.32 1130.47 1513.59 1133.33 1667.23 1322.67C1820.87 1512.01 1500.53 1454.39 1400.01 1411.09" stroke="#393939" stroke-opacity="0.8" stroke-width="2"/>
<path d="M-47.6582 278.301C-2.40389 315.381 119.003 390.681 210.676 437.288C290.015 477.624 371.36 502.963 137.042 672.744C-97.277 842.524 287.618 874.974 416.144 856.258" stroke="#393939" stroke-opacity="0.8" stroke-width="2"/>
<path d="M1933.04 998.079C1888.11 1018.38 1772.86 1053.16 1688.08 1071.08C1614.7 1086.58 1542.96 1089.45 1696.6 1278.78C1850.24 1468.12 1529.9 1410.5 1429.38 1367.21" stroke="#393939" stroke-opacity="0.8" stroke-width="2"/>
<path d="M1967.44 117.441C1932.68 251.171 1631.61 481.981 1615.65 742.017C1601.85 967.064 1618.28 1191.7 1107.33 637.164C596.377 82.6297 809.277 1025.91 947.436 1358.44" stroke="#393939" stroke-opacity="0.2" stroke-width="2"/>
<path d="M-72 2295.39C-33.8665 2326.63 68.4367 2390.08 145.685 2429.36C212.54 2463.35 281.085 2484.7 83.6371 2627.76C-113.811 2770.83 210.52 2798.17 318.822 2782.4" stroke="#393939" stroke-width="2"/>
<path d="M-77 2281.3C-31.7457 2318.38 89.6611 2393.68 181.334 2440.29C260.673 2480.62 342.019 2505.96 107.7 2675.74C-126.619 2845.52 258.276 2877.97 386.802 2859.26" stroke="#393939" stroke-width="2"/>
<g filter="url(#filter2_f_0_53)">
<ellipse cx="1568.34" cy="2468.68" rx="438.317" ry="446.631" transform="rotate(53.0991 1568.34 2468.68)" fill="#28292E" fill-opacity="0.8"/>
</g>
<g filter="url(#filter3_f_0_53)">
<ellipse cx="1100.41" cy="2886.48" rx="247.594" ry="252.29" transform="rotate(53.0991 1100.41 2886.48)" fill="#28292E" fill-opacity="0.8"/>
</g>
<path d="M1722.76 162C1713.73 189.36 1682.65 254.283 1656.27 299.712C1633.44 339.029 1605.5 373.725 1754.87 358.894C1904.24 344.063 1747.19 477.572 1686.37 511.794" stroke="#393939" stroke-opacity="0.8" stroke-width="2"/>
<path d="M1715.76 150C1706.73 177.36 1675.65 242.283 1649.27 287.712C1626.44 327.029 1598.5 361.725 1747.87 346.894C1897.24 332.063 1740.19 465.572 1679.37 499.794" stroke="#393939" stroke-opacity="0.8" stroke-width="2"/>
<path d="M1647.76 550C1638.73 577.36 1607.65 642.283 1581.27 687.712C1558.44 727.029 1530.5 761.725 1679.87 746.894C1829.24 732.063 1672.19 865.572 1611.37 899.794" stroke="#393939" stroke-opacity="0.8" stroke-width="2"/>
<circle cx="1879" cy="371" r="27" fill="url(#paint10_radial_0_53)" fill-opacity="0.3"/>
<circle cx="1612" cy="595" r="48" fill="url(#paint11_radial_0_53)" fill-opacity="0.3"/>
<path d="M1912.83 3443.39C1874.69 3474.63 1772.39 3538.08 1695.14 3577.36C1628.29 3611.35 1559.74 3632.7 1757.19 3775.76C1954.64 3918.83 1630.31 3946.17 1522 3930.4" stroke="#393939" stroke-opacity="0.8" stroke-width="2"/>
<path d="M2088.11 3284.04C2029.9 3323.63 1873.04 3403.18 1754.32 3451.96C1651.57 3494.18 1545.77 3519.82 1857.3 3713.38C2168.83 3906.95 1665.8 3931.94 1497 3907.74" stroke="#393939" stroke-opacity="0.8" stroke-width="2"/>
<circle cx="1869.5" cy="3661.5" r="361" fill="url(#paint12_linear_0_53)" fill-opacity="0.9" stroke="url(#paint13_linear_0_53)"/>
</g>
<defs>
<filter id="filter0_f_0_53" x="563.977" y="-268.463" width="1610.23" height="1370.93" filterUnits="userSpaceOnUse" color-interpolation-filters="sRGB">
<feFlood flood-opacity="0" result="BackgroundImageFix"/>
<feBlend mode="normal" in="SourceGraphic" in2="BackgroundImageFix" result="shape"/>
<feGaussianBlur stdDeviation="100" result="effect1_foregroundBlur_0_53"/>
</filter>
<filter id="filter1_f_0_53" x="-253.715" y="103.832" width="1124.75" height="1120.95" filterUnits="userSpaceOnUse" color-interpolation-filters="sRGB">
<feFlood flood-opacity="0" result="BackgroundImageFix"/>
<feBlend mode="normal" in="SourceGraphic" in2="BackgroundImageFix" result="shape"/>
<feGaussianBlur stdDeviation="100" result="effect1_foregroundBlur_0_53"/>
</filter>
<filter id="filter2_f_0_53" x="924.659" y="1827.33" width="1287.36" height="1282.71" filterUnits="userSpaceOnUse" color-interpolation-filters="sRGB">
<feFlood flood-opacity="0" result="BackgroundImageFix"/>
<feBlend mode="normal" in="SourceGraphic" in2="BackgroundImageFix" result="shape"/>
<feGaussianBlur stdDeviation="100" result="effect1_foregroundBlur_0_53"/>
</filter>
<filter id="filter3_f_0_53" x="649.79" y="2437.17" width="901.247" height="898.62" filterUnits="userSpaceOnUse" color-interpolation-filters="sRGB">
<feFlood flood-opacity="0" result="BackgroundImageFix"/>
<feBlend mode="normal" in="SourceGraphic" in2="BackgroundImageFix" result="shape"/>
<feGaussianBlur stdDeviation="100" result="effect1_foregroundBlur_0_53"/>
</filter>
<linearGradient id="paint0_linear_0_53" x1="193.578" y1="-132.668" x2="193.578" y2="437.206" gradientUnits="userSpaceOnUse">
<stop stop-color="#151515"/>
<stop offset="1" stop-color="#151515" stop-opacity="0"/>
</linearGradient>
<linearGradient id="paint1_linear_0_53" x1="193.578" y1="-132.668" x2="193.578" y2="575.824" gradientUnits="userSpaceOnUse">
<stop stop-color="#2B2929"/>
<stop offset="1" stop-opacity="0"/>
</linearGradient>
<linearGradient id="paint2_linear_0_53" x1="193.578" y1="-132.668" x2="193.578" y2="437.206" gradientUnits="userSpaceOnUse">
<stop stop-color="#151515"/>
<stop offset="1" stop-color="#151515" stop-opacity="0"/>
</linearGradient>
<linearGradient id="paint3_linear_0_53" x1="193.578" y1="-132.668" x2="193.578" y2="575.824" gradientUnits="userSpaceOnUse">
<stop stop-color="#2B2929"/>
<stop offset="1" stop-opacity="0"/>
</linearGradient>
<linearGradient id="paint4_linear_0_53" x1="1658.5" y1="907" x2="1658.5" y2="1488.54" gradientUnits="userSpaceOnUse">
<stop stop-color="#2C2C2C"/>
<stop offset="1" stop-color="#151515" stop-opacity="0"/>
</linearGradient>
<linearGradient id="paint5_linear_0_53" x1="1658.5" y1="907" x2="1658.5" y2="1630" gradientUnits="userSpaceOnUse">
<stop stop-color="#2B2929"/>
<stop offset="1" stop-opacity="0"/>
</linearGradient>
<linearGradient id="paint6_linear_0_53" x1="124.5" y1="2189" x2="124.5" y2="2770.54" gradientUnits="userSpaceOnUse">
<stop stop-color="#2C2C2C"/>
<stop offset="1" stop-color="#151515" stop-opacity="0"/>
</linearGradient>
<linearGradient id="paint7_linear_0_53" x1="124.5" y1="2189" x2="124.5" y2="2912" gradientUnits="userSpaceOnUse">
<stop stop-color="#2B2929"/>
<stop offset="1" stop-opacity="0"/>
</linearGradient>
<linearGradient id="paint8_linear_0_53" x1="1924.55" y1="-25.1926" x2="1285.49" y2="227.111" gradientUnits="userSpaceOnUse">
<stop stop-color="#151515"/>
<stop offset="1" stop-color="#0F0F0F" stop-opacity="0"/>
</linearGradient>
<linearGradient id="paint9_linear_0_53" x1="1828" y1="142" x2="1685.45" y2="79.2475" gradientUnits="userSpaceOnUse">
<stop stop-color="#2B2929"/>
<stop offset="1" stop-color="#151515" stop-opacity="0"/>
</linearGradient>
<radialGradient id="paint10_radial_0_53" cx="0" cy="0" r="1" gradientUnits="userSpaceOnUse" gradientTransform="translate(1874.17 366.61) rotate(81.2538) scale(31.7596)">
<stop stop-color="#A227CD"/>
<stop offset="1" stop-color="#110D18"/>
</radialGradient>
<radialGradient id="paint11_radial_0_53" cx="0" cy="0" r="1" gradientUnits="userSpaceOnUse" gradientTransform="translate(1603.41 587.195) rotate(81.2538) scale(56.4614)">
<stop stop-color="#A227CD"/>
<stop offset="1" stop-color="#110D18"/>
</radialGradient>
<linearGradient id="paint12_linear_0_53" x1="1869.5" y1="3300" x2="1869.5" y2="3881.54" gradientUnits="userSpaceOnUse">
<stop stop-color="#2C2C2C"/>
<stop offset="1" stop-color="#151515" stop-opacity="0"/>
</linearGradient>
<linearGradient id="paint13_linear_0_53" x1="1869.5" y1="3300" x2="1869.5" y2="4023" gradientUnits="userSpaceOnUse">
<stop stop-color="#2B2929"/>
<stop offset="1" stop-opacity="0"/>
</linearGradient>
<clipPath id="clip0_0_53">
<rect width="1920" height="3905" fill="white"/>
</clipPath>
</defs>
</svg>
